<svg width="22" height="28" viewBox="0 0 22 28" fill="none" xmlns="http://www.w3.org/2000/svg">
<path d="M19.1304 27.5H2.86957C2.10851 27.5 1.37862 27.2003 0.840476 26.6668C0.302328 26.1333 0 25.4097 0 24.6552V2.84483C0 2.09033 0.302328 1.36674 0.840476 0.833231C1.37862 0.299722 2.10851 0 2.86957 0H16.2609L22 5.68966V24.6552C22 25.4097 21.6977 26.1333 21.1595 26.6668C20.6214 27.2003 19.8915 27.5 19.1304 27.5Z" fill="#CFD2FC"/>
<path d="M0 20.8999H22V25.0249C22 25.6813 21.6977 26.3108 21.1595 26.775C20.6214 27.2391 19.8915 27.4999 19.1304 27.4999H2.86957C2.10851 27.4999 1.37862 27.2391 0.840476 26.775C0.302328 26.3108 0 25.6813 0 25.0249V20.8999Z" fill="#00AFEF"/>
<path d="M22 5.5H19.25C18.5207 5.5 17.8212 5.21027 17.3055 4.69454C16.7897 4.17882 16.5 3.47935 16.5 2.75V0L22 5.5Z" fill="#00AFEF"/>
<path d="M17.0922 12.0001C17.2269 12.0001 17.356 11.9527 17.4512 11.8683C17.5464 11.7839 17.5999 11.6694 17.5999 11.5501C17.5999 11.4307 17.5464 11.3163 17.4512 11.2319C17.356 11.1475 17.2269 11.1001 17.0922 11.1001H15.5691V9.3001H17.0922C17.2269 9.3001 17.356 9.25269 17.4512 9.1683C17.5464 9.0839 17.5999 8.96944 17.5999 8.8501C17.5999 8.73075 17.5464 8.61629 17.4512 8.5319C17.356 8.44751 17.2269 8.4001 17.0922 8.4001H15.5691V7.0501C15.5691 6.93075 15.5156 6.81629 15.4204 6.7319C15.3252 6.64751 15.1961 6.6001 15.0614 6.6001C14.9268 6.6001 14.7977 6.64751 14.7024 6.7319C14.6072 6.81629 14.5537 6.93075 14.5537 7.0501V8.4001H11.5076V7.0501C11.5076 6.93075 11.4541 6.81629 11.3589 6.7319C11.2637 6.64751 11.1346 6.6001 10.9999 6.6001C10.8653 6.6001 10.7361 6.64751 10.6409 6.7319C10.5457 6.81629 10.4922 6.93075 10.4922 7.0501V8.4001H7.44606V7.0501C7.44606 6.93075 7.39257 6.81629 7.29736 6.7319C7.20215 6.64751 7.07301 6.6001 6.93836 6.6001C6.80372 6.6001 6.67458 6.64751 6.57937 6.7319C6.48416 6.81629 6.43067 6.93075 6.43067 7.0501V8.4001H4.90759C4.77295 8.4001 4.64381 8.44751 4.5486 8.5319C4.45339 8.61629 4.3999 8.73075 4.3999 8.8501C4.3999 8.96944 4.45339 9.0839 4.5486 9.1683C4.64381 9.25269 4.77295 9.3001 4.90759 9.3001H6.43067V11.1001H4.90759C4.77295 11.1001 4.64381 11.1475 4.5486 11.2319C4.45339 11.3163 4.3999 11.4307 4.3999 11.5501C4.3999 11.6694 4.45339 11.7839 4.5486 11.8683C4.64381 11.9527 4.77295 12.0001 4.90759 12.0001H6.43067V13.8001H4.90759C4.77295 13.8001 4.64381 13.8475 4.5486 13.9319C4.45339 14.0163 4.3999 14.1308 4.3999 14.2501C4.3999 14.3694 4.45339 14.4839 4.5486 14.5683C4.64381 14.6527 4.77295 14.7001 4.90759 14.7001H6.43067V16.0501C6.43067 16.1694 6.48416 16.2839 6.57937 16.3683C6.67458 16.4527 6.80372 16.5001 6.93836 16.5001C7.07301 16.5001 7.20215 16.4527 7.29736 16.3683C7.39257 16.2839 7.44606 16.1694 7.44606 16.0501V14.7001H10.4922V16.0501C10.4922 16.1694 10.5457 16.2839 10.6409 16.3683C10.7361 16.4527 10.8653 16.5001 10.9999 16.5001C11.1346 16.5001 11.2637 16.4527 11.3589 16.3683C11.4541 16.2839 11.5076 16.1694 11.5076 16.0501V14.7001H14.5537V16.0501C14.5537 16.1694 14.6072 16.2839 14.7024 16.3683C14.7977 16.4527 14.9268 16.5001 15.0614 16.5001C15.1961 16.5001 15.3252 16.4527 15.4204 16.3683C15.5156 16.2839 15.5691 16.1694 15.5691 16.0501V14.7001H17.0922C17.2269 14.7001 17.356 14.6527 17.4512 14.5683C17.5464 14.4839 17.5999 14.3694 17.5999 14.2501C17.5999 14.1308 17.5464 14.0163 17.4512 13.9319C17.356 13.8475 17.2269 13.8001 17.0922 13.8001H15.5691V12.0001H17.0922ZM14.5537 9.3001V11.1001H11.5076V9.3001H14.5537ZM7.44606 9.3001H10.4922V11.1001H7.44606V9.3001ZM7.44606 13.8001V12.0001H10.4922V13.8001H7.44606ZM14.5537 13.8001H11.5076V12.0001H14.5537V13.8001Z" fill="#00AFEF"/>
<path d="M10.7708 23.206H11.7349C11.8628 23.206 11.9854 23.1552 12.0758 23.0648C12.1662 22.9744 12.2169 22.8518 12.2169 22.724C12.2169 22.5961 12.1662 22.4735 12.0758 22.3831C11.9854 22.2927 11.8628 22.2419 11.7349 22.2419H10.7708C10.3873 22.2419 10.0195 22.3943 9.74827 22.6655C9.47707 22.9367 9.32471 23.3045 9.32471 23.6881C9.32471 24.0716 9.47707 24.4394 9.74827 24.7106C10.0195 24.9818 10.3873 25.1342 10.7708 25.1342C10.8987 25.1342 11.0213 25.185 11.1117 25.2754C11.2021 25.3658 11.2529 25.4884 11.2529 25.6162C11.2529 25.7441 11.2021 25.8667 11.1117 25.9571C11.0213 26.0475 10.8987 26.0983 10.7708 26.0983H9.80675C9.6789 26.0983 9.55629 26.1491 9.46589 26.2395C9.37549 26.3299 9.32471 26.4525 9.32471 26.5803C9.32471 26.7082 9.37549 26.8308 9.46589 26.9212C9.55629 27.0116 9.6789 27.0623 9.80675 27.0623H10.7708C11.1544 27.0623 11.5222 26.91 11.7934 26.6388C12.0646 26.3676 12.2169 25.9998 12.2169 25.6162C12.2169 25.2327 12.0646 24.8649 11.7934 24.5937C11.5222 24.3225 11.1544 24.1701 10.7708 24.1701C10.643 24.1701 10.5204 24.1193 10.43 24.0289C10.3396 23.9385 10.2888 23.8159 10.2888 23.6881C10.2888 23.5602 10.3396 23.4376 10.43 23.3472C10.5204 23.2568 10.643 23.206 10.7708 23.206Z" fill="white"/>
<path d="M15.7081 22.2563C15.5841 22.2253 15.4528 22.2448 15.3432 22.3106C15.2336 22.3764 15.1546 22.483 15.1236 22.607L14.6271 24.5928L14.1307 22.607C14.1157 22.5452 14.0887 22.487 14.0511 22.4357C14.0135 22.3844 13.9661 22.341 13.9117 22.3081C13.8573 22.2752 13.7969 22.2534 13.734 22.2439C13.6711 22.2344 13.607 22.2375 13.5453 22.2529C13.4836 22.2683 13.4256 22.2958 13.3746 22.3338C13.3235 22.3717 13.2805 22.4194 13.248 22.474C13.2155 22.5287 13.1941 22.5892 13.1851 22.6522C13.176 22.7151 13.1796 22.7792 13.1954 22.8408L14.1595 26.6971C14.1856 26.8014 14.2458 26.894 14.3305 26.9601C14.4152 27.0263 14.5196 27.0622 14.6271 27.0622C14.7346 27.0622 14.839 27.0263 14.9238 26.9601C15.0085 26.894 15.0687 26.8014 15.0948 26.6971L16.0589 22.8408C16.0898 22.7168 16.0703 22.5855 16.0045 22.4759C15.9388 22.3663 15.8321 22.2873 15.7081 22.2563Z" fill="white"/>
<path d="M7.39667 23.2058C7.49241 23.2062 7.58686 23.228 7.67312 23.2695C7.78876 23.3241 7.92133 23.3304 8.04166 23.2872C8.16198 23.244 8.26022 23.1547 8.31474 23.0391C8.36927 22.9234 8.37562 22.7909 8.3324 22.6705C8.28919 22.5502 8.19994 22.452 8.0843 22.3975C7.8695 22.2951 7.6346 22.2419 7.39667 22.2417C6.33347 22.2417 5.46851 23.3229 5.46851 24.6519C5.46851 25.9809 6.33347 27.0621 7.39667 27.0621C7.6346 27.0619 7.8695 27.0087 8.0843 26.9063C8.19994 26.8518 8.28919 26.7536 8.3324 26.6333C8.37562 26.5129 8.36927 26.3804 8.31474 26.2647C8.26022 26.1491 8.16198 26.0598 8.04166 26.0166C7.92133 25.9734 7.78876 25.9797 7.67312 26.0343C7.58686 26.0758 7.49241 26.0976 7.39667 26.098C6.87407 26.098 6.43259 25.4358 6.43259 24.6519C6.43259 23.868 6.87407 23.2058 7.39667 23.2058Z" fill="white"/>
</svg>
