<svg width="20" height="20" viewBox="0 0 20 20" fill="none" xmlns="http://www.w3.org/2000/svg">
<g opacity="0.3" clip-path="url(#clip0)">
<path d="M18.481 6.723C18.5433 6.38895 18.5749 6.04987 18.5753 5.71004C18.5715 2.55388 16.0099 -0.00160739 12.8537 0.00220152C10.4511 0.00508959 8.30687 1.51045 7.48799 3.76921C6.02181 3.18557 4.36008 3.90098 3.7764 5.36716C3.72588 5.49406 3.68452 5.6244 3.65267 5.75721C1.31157 6.10734 -0.302401 8.28901 0.047726 10.6301C0.361731 12.7297 2.16548 14.2831 4.28842 14.2822H7.86014C8.25467 14.2822 8.57449 13.9624 8.57449 13.5679C8.57449 13.1733 8.25467 12.8535 7.86014 12.8535H4.28842C2.71032 12.8535 1.43103 11.5742 1.43103 9.99611C1.43103 8.41801 2.71032 7.13872 4.28842 7.13872C4.68296 7.13872 5.00278 6.8189 5.00278 6.42436C5.00408 5.63533 5.64477 4.99673 6.4338 4.99803C6.80695 4.99865 7.16507 5.14524 7.43153 5.40642C7.71251 5.68334 8.16481 5.68003 8.44173 5.39905C8.5457 5.29353 8.6143 5.15834 8.63803 5.01209C9.02579 2.67932 11.2312 1.1026 13.564 1.49036C15.8967 1.87811 17.4734 4.08351 17.0857 6.41628C17.0626 6.55537 17.0326 6.69324 16.9959 6.82936C16.9137 7.12754 17.0328 7.44469 17.2909 7.61512C18.6059 8.48762 18.9645 10.2609 18.092 11.5759C17.5639 12.3718 16.6731 12.8512 15.7179 12.8534H13.5749C13.1803 12.8534 12.8605 13.1732 12.8605 13.5678C12.8605 13.9623 13.1803 14.2821 13.5749 14.2821H15.7179C18.0851 14.2799 20.0022 12.3591 19.9999 9.99201C19.9988 8.7321 19.4432 7.53648 18.481 6.723Z" fill="black"/>
<path d="M14.7781 15.206C14.5013 14.9387 14.0624 14.9387 13.7856 15.206L11.4319 17.5584V7.13892C11.4319 6.74438 11.112 6.42456 10.7175 6.42456C10.323 6.42456 10.0031 6.74438 10.0031 7.13892V17.5583L7.65079 15.206C7.36701 14.9319 6.91479 14.9398 6.64072 15.2235C6.37334 15.5004 6.37334 15.9392 6.64072 16.2161L10.2124 19.7878C10.491 20.0671 10.9434 20.0677 11.2227 19.789C11.2231 19.7886 11.2235 19.7882 11.224 19.7878L14.7957 16.2161C15.0698 15.9323 15.0619 15.4801 14.7781 15.206Z" fill="black"/>
</g>
<defs>
<clipPath id="clip0">
<rect width="20" height="20" fill="white"/>
</clipPath>
</defs>
</svg>
